PathFileType	4	(X/Y/Z)	18_2_8_p0_0-2039.trc
DataRate	CameraRate	NumFrames	NumMarkers	Units	OrigDataRate	OrigDataStartFrame	OrigNumFrames
60.0	60.0	4	27	m	60.0	0	2040
Frame#	Time	RHip			RKnee			RAnkle			RBigToe			RSmallToe			RHeel			LHip			LKnee			LAnkle			LBigToe			LSmallToe			LHeel			Neck			Head			Nose			RShoulder			RElbow			RWrist			RThumb			RIndex			RPinky			LShoulder			LElbow			LWrist			LThumb			LIndex			LPinky			
		X1	Y1	Z1	X2	Y2	Z2	X3	Y3	Z3	X4	Y4	Z4	X5	Y5	Z5	X6	Y6	Z6	X7	Y7	Z7	X8	Y8	Z8	X9	Y9	Z9	X10	Y10	Z10	X11	Y11	Z11	X12	Y12	Z12	X13	Y13	Z13	X14	Y14	Z14	X15	Y15	Z15	X16	Y16	Z16	X17	Y17	Z17	X18	Y18	Z18	X19	Y19	Z19	X20	Y20	Z20	X21	Y21	Z21	X22	Y22	Z22	X23	Y23	Z23	X24	Y24	Z24	X25	Y25	Z25	X26	Y26	Z26	X27	Y27	Z27	
0	0.0	0.26297150280899295	0.44687237036944133	1.2154005806367907	0.22981143130018744	0.47397474466428363	1.6276915744230966	0.22609902190548367	0.5276322064393147	2.0063824630188876	0.20649712460530076	0.32698059097464444	2.0079441907656963	0.274565399244943	0.3682765426466363	2.0171606135426203	0.2182913328323653	0.6507858924739227	2.092550029817938	0.04465804224415074	0.4320492418727077	1.2062293248786065	0.04058680837717253	0.4984277796345811	1.6414791454431155	0.03110503722885424	0.5657630677332036	2.0244518457910483	0.06743533884532632	0.37754918034847107	2.020796221952184	0.014301512959914435	0.40477160280019026	2.032850333155456	0.04264132981624602	0.6154064263203111	2.062679448527401	0.1659842674000437	0.37632115039801534	0.6950924596616307	0.18512279939904788	0.2724832340040742	0.46634979083122363	0.16973987810296384	0.22211925458231294	0.5960089439540402	0.3071990801169688	0.32303058015060715	0.7639949461233955	0.3050264045329365	0.1331834429715213	0.9252887610677585	0.19636355113213205	-0.06198716351800726	1.0019346565381204	0.12116512773102171	-0.11655124668332678	1.031835314812829	0.12348778354586412	-0.1273940616670413	1.0432886462490376	0.15226854511694426	-0.12502225761121083	1.0899935757457355	0.030518301638135393	0.3802851799405931	0.7573452787859035	-0.014272939335100324	0.12909777507727516	0.9023714727629386	0.08131816111345601	-0.10047191484919508	0.9705759219865266	0.13259991718678724	-0.1399912246097201	1.0224797376164307	0.14331613556912604	-0.14792503582401204	1.0336502336715243	0.11989974573248535	-0.10914880309623254	1.0458926561664887
1	0.016666666666666666	0.2591237093336328	0.4328752225775446	1.2134077588062528	0.2348183681775893	0.4576430824185974	1.617945676757664	0.22720740929684102	0.5259652876782642	2.0015480829693306	0.20744644236298876	0.32808791417741884	2.0091882764561957	0.27514288607555815	0.36970367028523227	2.0182376052937463	0.21902264843979372	0.6562144232964624	2.0949934706862074	0.04472728455798078	0.4295475498706889	1.2118832095017993	0.04152505397536733	0.4974672988122726	1.637647478972355	0.03115337168637655	0.5661779522495207	2.024547436571498	0.06631601303887553	0.37846275431540705	2.025489249141283	0.008484553159291324	0.4223408017053977	2.0363022572040403	0.03724443237339822	0.6338935113637085	2.0713075830594536	0.16614743099328222	0.37559240749733896	0.6918994300149625	0.18516034367549375	0.27261849509742114	0.46640096367548467	0.1696853102742185	0.22221569873601224	0.5959400299083656	0.3036386414099328	0.3114225640300675	0.7632126068133741	0.30478251589722877	0.13482355700071225	0.9219935554820812	0.19881048871165188	-0.06388361275327356	0.9770102727858744	0.1273250191224445	-0.11845263739051638	1.020703067610901	0.12423222580451385	-0.1283893995736914	1.0288040694126503	0.15873162594893564	-0.12499968622817892	1.0415060706114385	0.030449856979608954	0.38062945807438353	0.7573707926190754	-0.009722160552813646	0.11680138743246803	0.9013278127892554	0.07882753998185552	-0.10792073169236825	0.9586809853768921	0.13975146830012666	-0.14699779560761803	1.0145696836645457	0.14652751399548464	-0.14434923089061077	1.0222453616985114	0.13137036248071943	-0.1277480433478017	1.0289566052094932
2	0.03333333333333333	0.25983961378987164	0.4316469527875755	1.208500476053681	0.23120449628020992	0.44352736081752603	1.6129770713521223	0.22383801610786178	0.5114009132199214	1.9950736698748424	0.2062102107107181	0.3250096362800804	2.003613517375325	0.2749495489477795	0.36968181791833093	2.0181702174726484	0.21913353282060533	0.6564540045181869	2.094639609843128	0.04573702575591168	0.4294838896883088	1.2002653237917833	0.04158229562646166	0.49742672303708885	1.6375161080494263	0.03118305504441624	0.5664043450028072	2.0246428846632174	0.06484304581618856	0.3644081080918324	2.0144385292129097	0.010121629579212631	0.41864492219227617	2.0359319610579307	0.037472583918224965	0.6343268967941381	2.0717255957629206	0.17035823011554782	0.362889868112961	0.691159671625444	0.18516999762002706	0.27275426845631273	0.46647264613153416	0.17287011621526777	0.23423801264211225	0.5958604177981855	0.3038127529855256	0.31076417226524833	0.7631314323069903	0.2967659445159651	0.13123468904474814	0.9174893155394338	0.1943407290327188	-0.07104965725353135	0.9550587431589102	0.12315940037273601	-0.11541166036701783	1.0001474388147271	0.12748455928116767	-0.12763450841183752	1.0186251818668657	0.163461865720529	-0.13421013693353348	1.030441336749495	0.027885575657052505	0.3695065958248921	0.7524902194717217	-0.003267730814566984	0.08315178081652054	0.8886707218740277	0.08521766719837168	-0.10830732963126154	0.9452165249144773	0.1345468742394849	-0.1343892027312005	0.9894344246844352	0.14352016719220678	-0.1346096872492079	1.003670081581817	0.12166787501265997	-0.15702862833160208	1.016815627148557
3	0.05	0.2564495253244461	0.43037085550671716	1.2042827773516955	0.23486967968858716	0.45765045545006966	1.6177518378264746	0.22381499245731365	0.5115148099128891	1.9952076933163538	0.20717585969876695	0.32857728239629663	2.0093251754621595	0.2750468180282042	0.3701945010748472	2.018447349975832	0.21905754947408682	0.6563127526973906	2.094831234042341	0.0501642527084679	0.42002453728963474	1.1893557760208209	0.04170994322268577	0.49784672859155077	1.6379008562127508	0.03687576568383153	0.5675226833224982	2.020607680023983	0.06726309029541527	0.3767589614941269	2.020601208759624	0.009558970160679697	0.42152256213704514	2.0323112203917137	0.043054551986044486	0.6152923099501817	2.0630124643184873	0.16637340070524137	0.37511319072593025	0.691651017157642	0.18516859508767602	0.2729255066888163	0.4664707469683594	0.1729548784973867	0.23447657450586928	0.5958732062809241	0.30382453262332815	0.3110305738346162	0.7626459680479162	0.2993505113481178	0.12392257675822554	0.901395554730716	0.1948592133343365	-0.06980175880658245	0.9478202441267691	0.11972716566320894	-0.12008313873586936	0.973700712708066	0.12243081151974927	-0.12741859223069466	0.9921788034905624	0.16251521266235658	-0.1361505372674638	1.026740128600359	0.030367126400172136	0.3798525427073757	0.7489297613443557	-0.0029227666505083918	0.08089558755180913	0.8779766981485624	0.08474761337363779	-0.10870411950627963	0.9313233133844618	0.135675913563793	-0.12681774187176645	0.9652172778355657	0.1526389728439374	-0.13280854370483344	0.9836576758250227	0.1266445955937624	-0.19458581810932557	0.9946500131483997
